<?xml version="1.0" standalone="no"?><!DOCTYPE svg PUBLIC "-//W3C//DTD SVG 1.1//EN" "http://www.w3.org/Graphics/SVG/1.1/DTD/svg11.dtd"><svg t="1650350179326" class="icon" viewBox="0 0 1024 1024" version="1.1" xmlns="http://www.w3.org/2000/svg" p-id="3030" xmlns:xlink="http://www.w3.org/1999/xlink" width="128" height="128"><defs><style type="text/css"></style></defs><path d="M832 90.688c35.328 0 64 31.04 64 69.312v693.312c0 38.336-28.672 69.376-64 69.376H192c-35.328 0-64-31.04-64-69.376V160c0-38.272 28.672-69.312 64-69.312h640zM832 160H192v704h640v-704zM384 320v34.752C384 423.936 441.28 480 512 480s128-56.064 128-125.248V320h64v32a192 192 0 1 1-384 0V320h64z" p-id="3031"></path></svg>