<?xml version="1.0" standalone="no"?><!DOCTYPE svg PUBLIC "-//W3C//DTD SVG 1.1//EN" "http://www.w3.org/Graphics/SVG/1.1/DTD/svg11.dtd"><svg t="1647230218284" class="icon" viewBox="0 0 1024 1024" version="1.1" xmlns="http://www.w3.org/2000/svg" p-id="3626" xmlns:xlink="http://www.w3.org/1999/xlink" width="200" height="200"><defs><style type="text/css"></style></defs><path d="M512 1003.52a497.92 497.92 0 1 1 497.92-497.92A498.56 498.56 0 0 1 512 1003.52zM512 71.68a433.92 433.92 0 1 0 433.92 433.92A434.56 434.56 0 0 0 512 71.68z" fill="#323333" p-id="3627"></path><path d="M152.96 369.92a33.92 33.92 0 0 1 35.2-36.48 39.04 39.04 0 0 1 29.44 16l148.48 198.4V369.92a35.2 35.2 0 1 1 69.76 0V640a30.72 30.72 0 0 1-34.56 33.28 36.48 36.48 0 0 1-29.44-12.8l-147.2-198.4V640a30.72 30.72 0 0 1-34.56 33.28 31.36 31.36 0 0 1-37.12-33.28zM463.36 504.32a162.56 162.56 0 1 1 323.84 0 158.08 158.08 0 0 1-161.92 168.96 159.36 159.36 0 0 1-161.92-168.96z m252.16 0c-3.84-69.12-33.92-104.96-90.24-108.8s-84.48 39.68-88.32 108.8 33.28 104.32 88.32 108.16 86.4-36.48 90.24-108.16zM856.96 603.52A37.12 37.12 0 0 1 896 640c0 21.12-13.44 32-36.48 33.28s-35.84-12.16-37.12-33.28a37.76 37.76 0 0 1 34.56-36.48z" fill="#323333" p-id="3628"></path></svg>